<svg xmlns="http://www.w3.org/2000/svg" viewBox="0 0 1175 500">
  <defs>
    <linearGradient id="bg" x1="0" y1="0" x2="1" y2="1">
      <stop offset="0%" stop-color="#f5f0e8"/>
      <stop offset="100%" stop-color="#f0e8d8"/>
    </linearGradient>
    <linearGradient id="cardBg" x1="0" y1="0" x2="0" y2="1">
      <stop offset="0%" stop-color="#faf5f0"/>
      <stop offset="100%" stop-color="#f5f0e3"/>
    </linearGradient>
    <linearGradient id="banner" x1="0" y1="0" x2="1" y2="1">
      <stop offset="0%" stop-color="#3d2b1f"/>
      <stop offset="100%" stop-color="#5c3d30"/>
    </linearGradient>
  </defs>
  <rect width="1175" height="500" fill="url(#bg)"/>
  <rect x="0" y="0" width="1175" height="500" fill="none" stroke="#d4c4a8" stroke-width="1"/>
  <rect x="30" y="25" width="60" height="2" rx="1" fill="#c4a97d"/>
  <rect x="30" y="29" width="40" height="2" rx="1" fill="#c4a97d"/>
  <rect x="30" y="50" width="130" height="28" rx="14" fill="#c4a97d" opacity="0.3"/>
  <text x="95" y="68" text-anchor="middle" fill="#8b6914" font-size="12" font-family="'SF Mono',Menlo,monospace" font-weight="600">CC0-1.0 · 615 提交</text>
  <text x="55" y="130" fill="#3d2b1f" font-size="38" font-weight="700" font-family="'PingFang SC','Microsoft YaHei',sans-serif">System Prompts Leaks</text>
  <text x="55" y="175" fill="#8b6914" font-size="24" font-weight="700" font-family="'PingFang SC','Microsoft YaHei',sans-serif">全 AI 系统提示词档案馆，55.4K Stars</text>
  <text x="55" y="210" fill="#5c4033" font-size="14" font-family="'PingFang SC','Microsoft YaHei',sans-serif">Claude / ChatGPT / Gemini / Grok / Copilot / Cursor 等 20+ 产品</text>
  <line x1="55" y1="230" x2="1120" y2="230" stroke="#d4c4a8" stroke-width="1" stroke-dasharray="4,4"/>
  <rect x="55" y="255" width="1118" height="100" rx="12" fill="url(#banner)"/>
  <text x="120" y="295" fill="#ffd700" font-size="36" font-weight="700" text-anchor="middle">55.4K+</text>
  <text x="120" y="318" fill="#c4a97d" font-size="11" text-anchor="middle">GitHub Stars</text>
  <line x1="235" y1="268" x2="235" y2="342" stroke="#5c4033" stroke-width="1"/>
  <text x="295" y="295" fill="#ffd700" font-size="36" font-weight="700" text-anchor="middle">9.1K</text>
  <text x="295" y="318" fill="#c4a97d" font-size="11" text-anchor="middle">Forks</text>
  <line x1="410" y1="268" x2="410" y2="342" stroke="#5c4033" stroke-width="1"/>
  <text x="470" y="295" fill="#ffd700" font-size="36" font-weight="700" text-anchor="middle">652</text>
  <text x="470" y="318" fill="#c4a97d" font-size="11" text-anchor="middle">Watchers</text>
  <line x1="585" y1="268" x2="585" y2="342" stroke="#5c4033" stroke-width="1"/>
  <text x="650" y="290" fill="#f5f0e0" font-size="13" font-weight="600">覆盖品牌</text>
  <text x="650" y="315" fill="#c4a97d" font-size="11">🟡 Claude · ChatGPT</text>
  <text x="650" y="335" fill="#c4a97d" font-size="11">🟡 Gemini · Grok</text>
  <rect x="830" y="273" width="110" height="24" rx="12" fill="#6b4c3b"/>
  <text x="885" y="290" text-anchor="middle" fill="#ffd700" font-size="11" font-weight="600">Copilot</text>
  <rect x="950" y="273" width="100" height="24" rx="12" fill="#6b4c3b"/>
  <text x="1000" y="290" text-anchor="middle" fill="#ffd700" font-size="11" font-weight="600">Cursor</text>
  <rect x="830" y="305" width="110" height="24" rx="12" fill="#6b4c3b"/>
  <text x="885" y="322" text-anchor="middle" fill="#ffd700" font-size="11" font-weight="600">华邮报道</text>
  <rect x="950" y="305" width="100" height="24" rx="12" fill="#6b4c3b"/>
  <text x="1000" y="322" text-anchor="middle" fill="#ffd700" font-size="11" font-weight="600">CC0 协议</text>
  <text x="55" y="395" fill="#3d2b1f" font-size="14" font-weight="700">🌍 媒体怎么说</text>
  <rect x="55" y="410" width="540" height="70" rx="8" fill="url(#cardBg)" stroke="#e8dcc8" stroke-width="1"/>
  <text x="75" y="435" fill="#5c4033" font-size="12" font-style="italic">"The Washington Post featured this</text>
  <text x="75" y="458" fill="#5c4033" font-size="12" font-style="italic">repo — 'see the hidden rules behind AI'"</text>
  <rect x="615" y="410" width="540" height="70" rx="8" fill="url(#cardBg)" stroke="#e8dcc8" stroke-width="1"/>
  <text x="635" y="435" fill="#5c4033" font-size="12" font-style="italic">"System prompt instructions for all</text>
  <text x="635" y="458" fill="#5c4033" font-size="12" font-style="italic">AI chatbots — Claude, ChatGPT, Gemini etc."</text>
  <text x="975" y="485" fill="#c4a97d" font-size="10" text-anchor="end">github.com/asgeirtj/system_prompts_leaks</text>
</svg>